# AST/ASF file generated using VICON BodyLanguage
# -----------------------------------------------
:version 1.10
:name VICON
:units
  mass 1.0
  length 0.45
  angle deg
:documentation
   .ast/.asf automatically generated from VICON data using
   VICON BodyBuilder and BodyLanguage model FoxedUp or BRILLIANT.MOD
:root
   order TX TY TZ RX RY RZ
   axis XYZ
   position 0 0 0  
   orientation 0 0 0 
:bonedata
  begin
     id 1 
     name lhipjoint
     direction 0.588788 -0.725889 0.355548 
     length 2.37778 
     axis 0 0 0  XYZ
  end
  begin
     id 2 
     name lfemur
     direction 0.34202 -0.939693 0  
     length 6.86393  
     axis 0 0 20  XYZ
    dof rx ry rz
    limits (-160.0 20.0)
           (-70.0 70.0)
           (-60.0 70.0)
  end
  begin
     id 3 
     name ltibia
     direction 0.34202 -0.939693 0   
     length 7.32851   
     axis 0 0 20   XYZ
    dof rx
    limits (-10.0 170.0)
  end
  begin
     id 4 
     name lfoot
     direction 0.0626533 -0.172138 0.983078   
     length 1.98929   
     axis -90 7.62852e-016 20   XYZ
    dof rx rz
    limits (-45.0 90.0)
           (-70.0 20.0)
  end
  begin
     id 5 
     name ltoes
     direction 1.53647e-011 -4.21734e-011 1   
     length 1.00479   
     axis -90 7.62852e-016 20   XYZ
    dof rx
    limits (-90.0 20.0)
  end
  begin
     id 6 
     name rhipjoint
     direction -0.59141 -0.724168 0.354705   
     length 2.38343  
     axis 0 0 0  XYZ 
  end
  begin
     id 7 
     name rfemur
     direction -0.34202 -0.939693 0   
     length 6.95589   
     axis 0 0 -20   XYZ
    dof rx ry rz
    limits (-160.0 20.0)
           (-70.0 70.0)
           (-70.0 60.0)
  end
  begin
     id 8 
     name rtibia
     direction -0.34202 -0.939693 0   
     length 7.32327   
     axis 0 0 -20   XYZ
    dof rx
    limits (-10.0 170.0)
 end
 begin
     id 9 
     name rfoot
     direction -0.0660461 -0.18146 0.981178   
     length 1.85272  
     axis -90 -7.62852e-016 -20   XYZ
    dof rx rz
    limits (-45.0 90.0)
           (-20.0 70.0)
  end
  begin
     id 10 
     name rtoes
     direction -1.53586e-011 -4.21988e-011 1   
     length 0.93746   
     axis -90 -7.62852e-016 -20   XYZ
    dof rx
    limits (-90.0 20.0)
  end
  begin
     id 11 
     name lowerback
     direction -0.0107982 0.991059 0.13299   
     length 1.98691   
     axis 0 0 0   XYZ
    dof rx ry rz
    limits (-20.0 45.0)
           (-30.0 30.0)
           (-30.0 30.0)
  end
  begin
     id 12 
     name upperback
     direction 0.0076296 0.999916 0.0104576   
     length 1.99501   
     axis 0 0 0   XYZ
    dof rx ry rz
    limits (-20.0 45.0)
           (-30.0 30.0)
           (-30.0 30.0)
  end
  begin
     id 13 
     name thorax
     direction 0.01176 0.998615 -0.0512909   
     length 2.03144   
     axis 0 0 0   XYZ
    dof rx ry rz
    limits (-20.0 45.0)
           (-30.0 30.0)
           (-30.0 30.0)
  end
  begin
     id 14 
     name lowerneck
     direction -0.0171909 0.999644 0.0204011   
     length 1.71818   
     axis 0 0 0   XYZ
    dof rx ry rz
    limits (-20.0 45.0)
           (-30.0 30.0)
           (-30.0 30.0)
  end
  begin
     id 15 
     name upperneck
     direction 0.0250902 0.997482 -0.0663316   
     length 1.66199   
     axis 0 0 0   XYZ
    dof rx ry rz
    limits (-20.0 45.0)
           (-30.0 30.0)
           (-30.0 30.0)
  end
  begin
     id 16
     name head
     direction 0.00881535 0.99956 -0.0283365  
     length 1.81545  
     axis 0 0 0   XYZ
    dof rx ry rz
    limits (-20.0 45.0)
           (-30.0 30.0)
           (-30.0 30.0)
  end
  begin
     id 17 
     name lclavicle
     direction 0.840411 0.486876 -0.238035  
     length 3.30409  
     axis 0 0 0   XYZ
    dof ry rz
    limits (-20.0 10.0)
           (0.0 20.0)
  end
  begin
     id 18 
     name lhumerus
     direction 1 -4.48977e-011 -5.16239e-027   
     length 4.62672   
     axis 180 -30 -90   XYZ
    dof rx ry rz
    limits (-60.0 90.0)
           (-90.0 90.0)
           (-90.0 90.0)
  end
  begin
     id 19
     name lradius
     direction 1 -4.48977e-011 -8.71171e-027   
     length 3.11018   
     axis 180 -30 -90   XYZ
    dof rx
    limits (-10.0 170.0)
  end
  begin
     id 20
     name lwrist
     direction 1 -4.48912e-011 -1.03764e-026   
     length 1.55509   
     axis 9.09556e-015 90 90   XYZ
    dof ry
    limits (-180.0 0.0)
 end
  begin
     id 21 
     name lhand
     direction 1 -4.49072e-011 -2.07528e-026   
     length 0.743834   
     axis 1.3242e-014 90 90   XYZ
    dof rx rz
    limits (-90.0 90.0)
           (-45.0 45.0)
  end
  begin
     id 22 
     name lfingers
     direction 1 -4.48909e-011 -4.15056e-026   
     length 0.599698   
     axis 2.64841e-014 90 90   XYZ
    dof rx
    limits (0.0 90.0)
  end
  begin
     id 23
     name lthumb
     direction 0.707107 -6.35013e-011 0.707107   
     length 0.86105   
     axis -90 45 2.85299e-015   XYZ
    dof rx rz
    limits (-45.0 45.0)
           (-45.0 45.0)
  end
  begin
     id 24 
     name rclavicle
     direction -0.835208 0.500237 -0.228452   
     length 3.2716  
     axis 0 0 0   XYZ 
    dof ry rz
    limits (-10.0 20.0)
           (-20.0 0.0)
  end
  begin
     id 25 
     name rhumerus
     direction -1 -4.48978e-011 -5.1953e-028  
     length 4.55919   
     axis 180 30 90   XYZ
    dof rx ry rz
    limits (-90.0 60.0)
           (-90.0 90.0)
           (-90.0 90.0)
  end
  begin
     id 26 
     name rradius
     direction -1 -4.48961e-011 -5.99546e-027   
     length 3.22748   
     axis 180 30 90   XYZ
    dof rx
    limits (-10.0 170.0)
  end
  begin
     id 27 
     name rwrist
     direction -1 -4.48986e-011 -1.03764e-026   
     length 1.61374   
     axis 9.09556e-015 -90 -90   XYZ
    dof ry
    limits (-180.0 0.0)
  end
  begin
     id 28
     name rhand
     direction -1 -4.4899e-011 -2.07528e-026   
     length 0.700882   
     axis 1.3242e-014 -90 -90   XYZ
    dof rx rz
    limits (-90.0 90.0)
           (-45.0 45.0)
  end
  begin
     id 29
     name rfingers
     direction -1 -4.48991e-011 -4.15056e-026   
     length 0.565069   
     axis 2.64841e-014 -90 -90   XYZ
    dof rx
    limits (0.0 90.0)
  end
  begin
     id 30
     name rthumb
     direction -0.707107 -6.34804e-011 0.707107   
     length 0.811329   
     axis -90 -45 -2.85299e-015   XYZ
    dof rx rz
    limits (-45.0 45.0)
           (-45.0 45.0)
  end
:hierarchy
  begin
    root lhipjoint rhipjoint lowerback
    lhipjoint lfemur
    lfemur ltibia
    ltibia lfoot
    lfoot ltoes
    rhipjoint rfemur
    rfemur rtibia
    rtibia rfoot
    rfoot rtoes
    lowerback upperback
    upperback thorax
    thorax lowerneck lclavicle rclavicle
    lowerneck upperneck
    upperneck head
    lclavicle lhumerus
    lhumerus lradius
    lradius lwrist
    lwrist lhand lthumb
    lhand lfingers
    rclavicle rhumerus
    rhumerus rradius
    rradius rwrist
    rwrist rhand rthumb
    rhand rfingers
  end

#!OML:ASF F:\VICON\USERDATA\INSTALL\SteveWalk\SteveWalk.ASF
:FULLY-SPECIFIED
:DEGREES
143
root -0.33846 16.4096 -13.2077 18.9921 3.634 -1.21232
lowerback -16.436 -0.797705 3.58381
upperback -4.94396 -1.77927 3.0482
thorax 3.9255 -0.865191 0.842099
lowerneck -3.74721 -0.806949 0.199346
upperneck 5.5114 -1.00225 -1.49862
head 2.37038 -0.538712 -0.541594
rclavicle 7.95139e-016 -7.95139e-015
rhumerus -52.0923 -31.6549 -56.9756
rradius 16.7868
rwrist 15.7301
rhand -16.996 -36.2716
rfingers 7.12502
rthumb 9.23917 -66.0492
lclavicle 7.95139e-016 -7.95139e-015
lhumerus -26.786 -2.12531 86.6506
lradius 40.8196
lwrist 13.4321
lhand -24.6998 -18.7739
lfingers 7.12502
lthumb 1.80155 11.1982
rfemur -40.5489 -6.13745 28.5235
rtibia 37.9842
rfoot -17.8693 2.94857
rtoes -16.0254
lfemur -30.0494 0.441423 -16.2759
ltibia 72.9312
lfoot 0.611784 -1.22918
ltoes -17.2109
144
root -0.355555 16.4266 -13.0126 18.8818 3.49987 -1.00976
lowerback -16.2071 -0.795393 3.24721
upperback -5.00948 -1.70285 2.96684
thorax 3.74278 -0.830753 0.964388
lowerneck -3.63919 -0.863659 0.287124
upperneck 5.79299 -1.06536 -1.74526
head 2.44233 -0.576255 -0.63854
rclavicle -2.65874e-015 -4.77083e-015
rhumerus -49.0216 -29.2673 -61.3273
rradius 17.9585
rwrist 12.2314
rhand -17.3571 -37.5622
rfingers 7.12502
rthumb 8.89073 -67.3549
lclavicle -2.65874e-015 -4.77083e-015
lhumerus -27.8104 -1.78701 86.9463
lradius 38.9245
lwrist 12.3499
lhand -24.2102 -19.1105
lfingers 7.12502
lthumb 2.2744 10.8572
rfemur -39.45 -5.98558 28.222
rtibia 37.679
rfoot -18.3017 2.57431
rtoes -15.6937
lfemur -31.5098 0.611154 -16.6059
ltibia 73.3788
lfoot -0.907137 -0.391452
ltoes -20.502
145
root -0.371387 16.4489 -12.8168 18.7025 3.37969 -0.810384
lowerback -15.9104 -0.780329 2.92768
upperback -5.02852 -1.61267 2.8721
thorax 3.57149 -0.788523 1.0658
lowerneck -3.55912 -0.896973 0.356605
upperneck 5.95968 -1.1022 -1.90327
head 2.48191 -0.598163 -0.70285
rclavicle 2.05742e-014 2.38542e-015
rhumerus -46.3654 -26.9195 -65.0967
rradius 19.2568
rwrist 9.09218
rhand -17.6172 -38.1703
rfingers 7.12502
rthumb 8.63976 -67.9735
lclavicle 2.05742e-014 2.38542e-015
lhumerus -28.8375 -1.66673 87.2677
lradius 37.0952
lwrist 11.1727
lhand -23.9784 -19.0192
lfingers 7.12502
lthumb 2.49825 10.9459
rfemur -38.313 -5.90553 27.9364
rtibia 37.3812
rfoot -18.6144 2.36159
rtoes -15.3157
lfemur -32.8804 0.742343 -16.9542
ltibia 73.5642
lfoot -1.65074 -0.0801022
ltoes -19.6483
146
root -0.378326 16.4796 -12.6152 18.5933 3.44968 -0.75217
lowerback -15.9292 -0.75239 2.90399
upperback -4.93851 -1.57315 2.79819
thorax 3.67534 -0.767649 1.0077
lowerneck -3.59614 -0.851951 0.329504
upperneck 6.04734 -1.03787 -1.91974
head 2.51887 -0.567808 -0.702496
rclavicle 4.72114e-016 1.27222e-014
rhumerus -43.9005 -24.6714 -68.3321
rradius 20.4954
rwrist 6.16871
rhand -17.9908 -37.6131
rfingers 7.12502
rthumb 8.27924 -67.4308
lclavicle 4.72114e-016 1.27222e-014
lhumerus -29.5849 -1.56652 87.5986
lradius 35.1691
lwrist 9.9741
lhand -23.5755 -18.4409
lfingers 7.12502
lthumb 2.88737 11.5193
rfemur -37.2858 -6.20675 27.9062
rtibia 37.1179
rfoot -19.126 2.56844
rtoes -14.3979
lfemur -34.2598 0.730834 -17.1642
ltibia 73.509
lfoot -2.50384 0.128551
ltoes -15.5835
147
root -0.385864 16.5019 -12.4157 18.6126 3.52033 -0.789772
lowerback -15.9225 -0.707999 2.97209
upperback -4.96445 -1.52142 2.75518
thorax 3.64128 -0.742529 0.933903
lowerneck -3.81279 -0.790008 0.366203
upperneck 6.3628 -0.944549 -2.0346
head 2.66562 -0.526607 -0.747284
rclavicle -9.61621e-015 6.36111e-015
rhumerus -41.865 -22.0639 -71.3498
rradius 22.1749
rwrist 3.01415
rhand -18.0129 -37.8987
rfingers 7.12502
rthumb 8.25788 -67.7173
lclavicle -9.61621e-015 6.36111e-015
lhumerus -30.3602 -1.31924 87.8399
lradius 33.0969
lwrist 8.61024
lhand -22.9583 -17.7082
lfingers 7.12502
lthumb 3.48341 12.2431
rfemur -36.4148 -6.48897 28.018
rtibia 36.8819
rfoot -19.7058 2.89721
rtoes -12.7522
lfemur -35.7561 0.709892 -17.2485
ltibia 73.2719
lfoot -3.16359 0.328209
ltoes -14.0479
148
root -0.4014 16.5111 -12.2192 18.4667 3.44494 -0.766775
lowerback -15.6337 -0.677216 2.84716
upperback -4.99457 -1.44502 2.71981
thorax 3.45778 -0.706894 0.984885
lowerneck -4.04882 -0.779736 0.416176
upperneck 6.77603 -0.91762 -2.17129
head 2.84924 -0.519711 -0.805006
rclavicle -1.2921e-015 -9.54166e-015
rhumerus -40.1789 -19.2334 -74.0837
rradius 24.2214
rwrist -0.18486
rhand -17.7716 -38.9039
rfingers 7.12502
rthumb 8.49072 -68.7132
lclavicle -1.2921e-015 -9.54166e-015
lhumerus -31.3669 -0.907655 88.0025
lradius 31.2657
lwrist 7.12375
lhand -22.6677 -17.1414
lfingers 7.12502
lthumb 3.764 12.8051
rfemur -35.3642 -6.56586 28.0078
rtibia 36.7096
rfoot -20.2985 3.09104
rtoes -10.4008
lfemur -37.0155 0.776946 -17.3937
ltibia 72.8288
lfoot -3.97744 0.282311
ltoes -11.0763
149
root -0.412367 16.5231 -12.0195 18.2976 3.37616 -0.691801
lowerback -15.4778 -0.605296 2.75232
upperback -4.97937 -1.32382 2.60144
thorax 3.3902 -0.647803 0.937408
lowerneck -3.88445 -0.850603 0.570159
upperneck 6.82167 -1.00847 -2.36628
head 2.83168 -0.56685 -0.897045
rclavicle 1.00138e-014 7.95139e-016
rhumerus -38.7674 -16.6566 -76.3748
rradius 26.254
rwrist -3.13842
rhand -17.6685 -39.5903
rfingers 7.12502
rthumb 8.59029 -69.3956
lclavicle 1.00138e-014 7.95139e-016
lhumerus -32.3217 -0.422977 88.0088
lradius 29.4002
lwrist 5.34862
lhand -22.7266 -17.5715
lfingers 7.12502
lthumb 3.70707 12.376
rfemur -34.3003 -6.80137 27.9515
rtibia 36.615
rfoot -20.9603 3.25711
rtoes -8.765
lfemur -38.1567 0.75717 -17.6196
ltibia 72.1713
lfoot -3.71985 -0.238049
ltoes -1.43821
150
root -0.414484 16.5324 -11.8147 18.296 3.33691 -0.509718
lowerback -15.5961 -0.539946 2.65546
upperback -4.9623 -1.2213 2.43776
thorax 3.47032 -0.596588 0.837173
lowerneck -3.57495 -0.903461 0.707941
upperneck 6.61425 -1.08154 -2.51383
head 2.70189 -0.601709 -0.96582
rclavicle -2.01766e-014 1.98785e-014
rhumerus -37.6042 -14.4139 -78.2009
rradius 28.4277
rwrist -5.79555
rhand -17.8421 -38.94
rfingers 7.12502
rthumb 8.42275 -68.752
lclavicle -2.01766e-014 1.98785e-014
lhumerus -33.3255 0.0568294 87.9908
lradius 27.6646
lwrist 3.70193
lhand -22.1391 -18.2043
lfingers 7.12502
lthumb 4.27441 11.7326
rfemur -33.4772 -7.35338 27.8475
rtibia 36.6079
rfoot -21.5088 3.43706
rtoes -9.82483
lfemur -39.3675 0.611172 -18.0215
ltibia 71.3297
lfoot -4.54984 0.276289
ltoes -3.23067
151
root -0.420087 16.5239 -11.6126 18.24 3.19428 -0.52441
lowerback -15.5476 -0.439813 2.62702
upperback -4.95709 -1.08108 2.39316
thorax 3.44999 -0.527447 0.832163
lowerneck -3.51854 -0.915369 0.643045
upperneck 6.58083 -1.09449 -2.50675
head 2.6801 -0.609013 -0.951714
rclavicle 6.55989e-015 -5.56597e-015
rhumerus -36.5317 -12.497 -79.5748
rradius 30.6326
rwrist -8.07596
rhand -18.0514 -38.2152
rfingers 7.12502
rthumb 8.22074 -68.0353
lclavicle 6.55989e-015 -5.56597e-015
lhumerus -34.3679 0.706547 87.9717
lradius 26.0918
lwrist 1.91968
lhand -20.7419 -17.6391
lfingers 7.12502
lthumb 5.62355 12.2663
rfemur -32.6007 -7.58404 27.8671
rtibia 36.6677
rfoot -22.0446 3.50896
rtoes -11.7076
lfemur -40.499 0.731454 -18.2273
ltibia 70.3816
lfoot -6.45292 1.53738
ltoes -10.8734
152
root -0.430269 16.5086 -11.4183 18.2579 3.00606 -0.479959
lowerback -15.3865 -0.34679 2.51794
upperback -5.05286 -0.928204 2.31096
thorax 3.26382 -0.453877 0.836266
lowerneck -3.42574 -0.904842 0.656254
upperneck 6.57802 -1.08003 -2.52402
head 2.66207 -0.601462 -0.958105
rclavicle -8.51047e-015 3.97569e-015
rhumerus -35.5927 -10.991 -80.6743
rradius 32.6099
rwrist -10.128
rhand -18.4909 -37.2589
rfingers 7.12502
rthumb 7.79657 -67.0951
lclavicle -8.51047e-015 3.97569e-015
lhumerus -35.4282 1.95136 87.5087
lradius 24.4749
lwrist -1.06393
lhand -19.5785 -16.8953
lfingers 7.12502
lthumb 6.74668 12.9772
rfemur -31.8478 -7.58472 27.7918
rtibia 36.7803
rfoot -22.6839 3.46076
rtoes -11.6412
lfemur -41.7408 0.883572 -18.5053
ltibia 69.2618
lfoot -7.18734 2.23754
ltoes -12.6784
153
root -0.439144 16.4969 -11.2258 18.3581 2.9587 -0.306507
lowerback -15.3866 -0.324466 2.31607
upperback -5.15092 -0.860082 2.19213
thorax 3.16222 -0.421143 0.837835
lowerneck -3.22509 -0.910938 0.630267
upperneck 6.59386 -1.09053 -2.46144
head 2.63004 -0.604236 -0.931861
rclavicle 1.11319e-014 -8.74653e-015
rhumerus -34.8051 -9.34245 -81.6874
rradius 34.7578
rwrist -12.2883
rhand -18.8207 -36.3774
rfingers 7.12502
rthumb 7.47823 -66.2252
lclavicle 1.11319e-014 -8.74653e-015
lhumerus -36.3713 3.38059 86.7925
lradius 22.7109
lwrist -4.24107
lhand -18.7362 -16.7754
lfingers 7.12502
lthumb 7.55977 13.0695
rfemur -31.1783 -7.79538 27.6604
rtibia 36.8706
rfoot -23.2272 3.09405
rtoes -10.6396
lfemur -43.0491 0.781448 -18.8623
ltibia 67.9607
lfoot -7.62882 2.66388
ltoes -10.7037
154
root -0.445689 16.4889 -11.0275 18.3265 2.91483 -0.166512
lowerback -15.3391 -0.312558 2.11884
upperback -5.11244 -0.811349 2.11553
thorax 3.17946 -0.396461 0.877495
lowerneck -3.27646 -0.923387 0.602161
upperneck 6.64128 -1.10418 -2.46807
head 2.65532 -0.612461 -0.930601
rclavicle 5.10628e-015 2.38542e-015
rhumerus -34.0024 -7.72943 -82.4905
rradius 37.3831
rwrist -13.8754
rhand -17.9939 -37.438
rfingers 7.12502
rthumb 8.27627 -67.2559
lclavicle 5.10628e-015 2.38542e-015
lhumerus -37.2477 4.88553 86.0581
lradius 21.0803
lwrist -7.15357
lhand -18.0321 -16.866
lfingers 7.12502
lthumb 8.23935 12.9534
rfemur -30.3259 -8.18749 27.5776
rtibia 36.8758
rfoot -23.7758 2.56201
rtoes -11.0147
lfemur -44.0777 0.664198 -19.1721
ltibia 66.447
lfoot -8.3298 2.95785
ltoes -7.09594
155
root -0.454363 16.4787 -10.8263 18.3887 2.64955 -0.178453
lowerback -15.3657 -0.214724 2.02618
upperback -5.01988 -0.670713 2.0671
thorax 3.29179 -0.325891 0.903642
lowerneck -3.55337 -0.897197 0.637437
upperneck 6.597 -1.06776 -2.52896
head 2.6925 -0.596791 -0.957557
rclavicle -8.74653e-015 -1.98785e-014
rhumerus -33.0392 -6.24347 -83.2413
rradius 39.8995
rwrist -15.6616
rhand -17.7638 -39.2615
rfingers 7.12502
rthumb 8.49824 -69.0705
lclavicle -8.74653e-015 -1.98785e-014
lhumerus -38.1503 6.51118 85.1495
lradius 19.766
lwrist -10.2247
lhand -17.1344 -16.906
lfingers 7.12502
lthumb 9.10566 12.8774
rfemur -29.5487 -8.18035 27.5269
rtibia 36.7925
rfoot -24.4573 2.55127
rtoes -11.7862
lfemur -45.0823 0.780004 -19.3856
ltibia 64.6771
lfoot -9.05116 3.24491
ltoes -3.97554
156
root -0.463271 16.4732 -10.621 18.4975 2.38619 -0.263233
lowerback -15.497 -0.128945 2.03346
upperback -4.96834 -0.563675 2.03146
thorax 3.41567 -0.272292 0.88097
lowerneck -3.77103 -0.846974 0.689058
upperneck 6.6055 -1.00134 -2.56154
head 2.73708 -0.564876 -0.977163
rclavicle 4.5969e-015 3.18055e-015
rhumerus -31.992 -4.94905 -83.9337
rradius 41.8354
rwrist -17.6355
rhand -18.2129 -40.5433
rfingers 7.12502
rthumb 8.06482 -70.3694
lclavicle 4.5969e-015 3.18055e-015
lhumerus -39.1903 8.33067 83.9526
lradius 18.5074
lwrist -13.4081
lhand -15.7457 -16.8423
lfingers 7.12502
lthumb 10.4455 12.8782
rfemur -28.7736 -8.11583 27.5093
rtibia 36.6275
rfoot -24.9568 3.12393
rtoes -11.3482
lfemur -45.9764 0.945093 -19.5239
ltibia 62.6275
lfoot -9.85595 3.77665
ltoes -3.59284
